<mxfile host="app.diagrams.net" modified="2022-03-28T00:07:43.246Z" agent="5.0 (Windows NT 10.0; Win64; x64) AppleWebKit/537.36 (KHTML, like Gecko) Chrome/99.0.4844.82 Safari/537.36" etag="hBI9Lu6QyFEIN2txsie-" version="17.2.4" type="github">
  <diagram id="v9VeEew0eSVK_gECYCmD" name="Page-1">
    <mxGraphModel dx="1038" dy="579" grid="1" gridSize="10" guides="1" tooltips="1" connect="1" arrows="1" fold="1" page="1" pageScale="1" pageWidth="827" pageHeight="1169" math="0" shadow="0">
      <root>
        <mxCell id="0" />
        <mxCell id="1" parent="0" />
        <mxCell id="GBpQVhTk9KxDPRQjgbmB-8" style="edgeStyle=orthogonalEdgeStyle;rounded=0;orthogonalLoop=1;jettySize=auto;html=1;exitX=1;exitY=0.5;exitDx=0;exitDy=0;entryX=0;entryY=0.5;entryDx=0;entryDy=0;" parent="1" source="GBpQVhTk9KxDPRQjgbmB-1" target="GBpQVhTk9KxDPRQjgbmB-3" edge="1">
          <mxGeometry relative="1" as="geometry" />
        </mxCell>
        <mxCell id="GBpQVhTk9KxDPRQjgbmB-9" style="edgeStyle=orthogonalEdgeStyle;rounded=0;orthogonalLoop=1;jettySize=auto;html=1;exitX=1;exitY=0.5;exitDx=0;exitDy=0;entryX=0;entryY=0.5;entryDx=0;entryDy=0;" parent="1" source="GBpQVhTk9KxDPRQjgbmB-1" target="GBpQVhTk9KxDPRQjgbmB-2" edge="1">
          <mxGeometry relative="1" as="geometry" />
        </mxCell>
        <mxCell id="GBpQVhTk9KxDPRQjgbmB-10" style="edgeStyle=orthogonalEdgeStyle;rounded=0;orthogonalLoop=1;jettySize=auto;html=1;exitX=1;exitY=0.5;exitDx=0;exitDy=0;entryX=0;entryY=0.5;entryDx=0;entryDy=0;" parent="1" source="GBpQVhTk9KxDPRQjgbmB-1" target="GBpQVhTk9KxDPRQjgbmB-4" edge="1">
          <mxGeometry relative="1" as="geometry" />
        </mxCell>
        <mxCell id="GBpQVhTk9KxDPRQjgbmB-11" style="edgeStyle=orthogonalEdgeStyle;rounded=0;orthogonalLoop=1;jettySize=auto;html=1;exitX=1;exitY=0.5;exitDx=0;exitDy=0;entryX=0;entryY=0.5;entryDx=0;entryDy=0;" parent="1" source="GBpQVhTk9KxDPRQjgbmB-1" target="GBpQVhTk9KxDPRQjgbmB-6" edge="1">
          <mxGeometry relative="1" as="geometry" />
        </mxCell>
        <mxCell id="GBpQVhTk9KxDPRQjgbmB-12" style="edgeStyle=orthogonalEdgeStyle;rounded=0;orthogonalLoop=1;jettySize=auto;html=1;entryX=0;entryY=0.5;entryDx=0;entryDy=0;exitX=1;exitY=0.5;exitDx=0;exitDy=0;" parent="1" source="_B6zjToYffxElgbs01hp-7" target="GBpQVhTk9KxDPRQjgbmB-7" edge="1">
          <mxGeometry relative="1" as="geometry">
            <mxPoint x="210" y="470" as="sourcePoint" />
          </mxGeometry>
        </mxCell>
        <mxCell id="SLsrdyDVqO_aE2-8c7I_-2" style="edgeStyle=orthogonalEdgeStyle;rounded=0;orthogonalLoop=1;jettySize=auto;html=1;exitX=1;exitY=0.5;exitDx=0;exitDy=0;entryX=0;entryY=0.5;entryDx=0;entryDy=0;" parent="1" source="GBpQVhTk9KxDPRQjgbmB-1" target="SLsrdyDVqO_aE2-8c7I_-1" edge="1">
          <mxGeometry relative="1" as="geometry" />
        </mxCell>
        <mxCell id="ySN6mnR29yhOzEf8zuOG-4" style="edgeStyle=orthogonalEdgeStyle;rounded=0;orthogonalLoop=1;jettySize=auto;html=1;exitX=1;exitY=0.5;exitDx=0;exitDy=0;entryX=0;entryY=0.5;entryDx=0;entryDy=0;" parent="1" source="_B6zjToYffxElgbs01hp-7" target="ySN6mnR29yhOzEf8zuOG-3" edge="1">
          <mxGeometry relative="1" as="geometry" />
        </mxCell>
        <mxCell id="HFXg7WAJ4wF_oNfZ3qlw-3" style="edgeStyle=orthogonalEdgeStyle;rounded=0;orthogonalLoop=1;jettySize=auto;html=1;exitX=1;exitY=0.5;exitDx=0;exitDy=0;entryX=0;entryY=0.5;entryDx=0;entryDy=0;" parent="1" source="_B6zjToYffxElgbs01hp-7" target="HFXg7WAJ4wF_oNfZ3qlw-1" edge="1">
          <mxGeometry relative="1" as="geometry" />
        </mxCell>
        <mxCell id="_B6zjToYffxElgbs01hp-8" style="edgeStyle=orthogonalEdgeStyle;rounded=0;orthogonalLoop=1;jettySize=auto;html=1;exitX=1;exitY=0.5;exitDx=0;exitDy=0;entryX=0;entryY=0.5;entryDx=0;entryDy=0;" parent="1" source="GBpQVhTk9KxDPRQjgbmB-1" target="_B6zjToYffxElgbs01hp-7" edge="1">
          <mxGeometry relative="1" as="geometry" />
        </mxCell>
        <mxCell id="_B6zjToYffxElgbs01hp-11" style="edgeStyle=orthogonalEdgeStyle;rounded=0;orthogonalLoop=1;jettySize=auto;html=1;exitX=1;exitY=0.5;exitDx=0;exitDy=0;entryX=0;entryY=0.5;entryDx=0;entryDy=0;" parent="1" source="GBpQVhTk9KxDPRQjgbmB-1" target="_B6zjToYffxElgbs01hp-10" edge="1">
          <mxGeometry relative="1" as="geometry" />
        </mxCell>
        <mxCell id="GBpQVhTk9KxDPRQjgbmB-1" value="旅游景点大数据&lt;br&gt;功能模块" style="rounded=1;whiteSpace=wrap;html=1;fontSize=15;fillColor=#008a00;strokeColor=#005700;fontColor=#ffffff;" parent="1" vertex="1">
          <mxGeometry x="50" y="230" width="120" height="60" as="geometry" />
        </mxCell>
        <mxCell id="GBpQVhTk9KxDPRQjgbmB-15" style="edgeStyle=orthogonalEdgeStyle;rounded=0;orthogonalLoop=1;jettySize=auto;html=1;exitX=1;exitY=0.5;exitDx=0;exitDy=0;entryX=0;entryY=0.5;entryDx=0;entryDy=0;" parent="1" source="GBpQVhTk9KxDPRQjgbmB-2" target="GBpQVhTk9KxDPRQjgbmB-5" edge="1">
          <mxGeometry relative="1" as="geometry" />
        </mxCell>
        <mxCell id="GBpQVhTk9KxDPRQjgbmB-2" value="首页" style="rounded=1;whiteSpace=wrap;html=1;fontSize=15;fillColor=#d5e8d4;strokeColor=#82b366;" parent="1" vertex="1">
          <mxGeometry x="250" y="110" width="120" height="40" as="geometry" />
        </mxCell>
        <mxCell id="GBpQVhTk9KxDPRQjgbmB-3" value="登录与注册" style="rounded=1;whiteSpace=wrap;html=1;fontSize=15;fillColor=#d5e8d4;strokeColor=#82b366;" parent="1" vertex="1">
          <mxGeometry x="250" y="40" width="120" height="40" as="geometry" />
        </mxCell>
        <mxCell id="GBpQVhTk9KxDPRQjgbmB-16" style="edgeStyle=orthogonalEdgeStyle;rounded=0;orthogonalLoop=1;jettySize=auto;html=1;exitX=1;exitY=0.5;exitDx=0;exitDy=0;entryX=0;entryY=0.5;entryDx=0;entryDy=0;" parent="1" source="GBpQVhTk9KxDPRQjgbmB-4" target="GBpQVhTk9KxDPRQjgbmB-14" edge="1">
          <mxGeometry relative="1" as="geometry" />
        </mxCell>
        <mxCell id="GBpQVhTk9KxDPRQjgbmB-4" value="景点分析" style="rounded=1;whiteSpace=wrap;html=1;fontSize=15;fillColor=#d5e8d4;strokeColor=#82b366;" parent="1" vertex="1">
          <mxGeometry x="250" y="240" width="120" height="40" as="geometry" />
        </mxCell>
        <mxCell id="_B6zjToYffxElgbs01hp-6" style="edgeStyle=orthogonalEdgeStyle;rounded=0;orthogonalLoop=1;jettySize=auto;html=1;exitX=1;exitY=0.5;exitDx=0;exitDy=0;entryX=0;entryY=0.5;entryDx=0;entryDy=0;" parent="1" source="GBpQVhTk9KxDPRQjgbmB-5" target="_B6zjToYffxElgbs01hp-5" edge="1">
          <mxGeometry relative="1" as="geometry" />
        </mxCell>
        <mxCell id="GBpQVhTk9KxDPRQjgbmB-5" value="景点卡片" style="rounded=1;whiteSpace=wrap;html=1;fontSize=15;fillColor=#d5e8d4;strokeColor=#82b366;" parent="1" vertex="1">
          <mxGeometry x="420" y="70" width="120" height="40" as="geometry" />
        </mxCell>
        <mxCell id="GBpQVhTk9KxDPRQjgbmB-18" style="edgeStyle=orthogonalEdgeStyle;rounded=0;orthogonalLoop=1;jettySize=auto;html=1;exitX=1;exitY=0.5;exitDx=0;exitDy=0;entryX=0;entryY=0.5;entryDx=0;entryDy=0;" parent="1" source="GBpQVhTk9KxDPRQjgbmB-6" target="GBpQVhTk9KxDPRQjgbmB-13" edge="1">
          <mxGeometry relative="1" as="geometry" />
        </mxCell>
        <mxCell id="GBpQVhTk9KxDPRQjgbmB-6" value="景点介绍词云" style="rounded=1;whiteSpace=wrap;html=1;fontSize=15;fillColor=#d5e8d4;strokeColor=#82b366;" parent="1" vertex="1">
          <mxGeometry x="250" y="390" width="120" height="40" as="geometry" />
        </mxCell>
        <mxCell id="GBpQVhTk9KxDPRQjgbmB-7" value="身份证识别" style="rounded=1;whiteSpace=wrap;html=1;fontSize=15;fillColor=#fff2cc;strokeColor=#d6b656;" parent="1" vertex="1">
          <mxGeometry x="420" y="445" width="120" height="40" as="geometry" />
        </mxCell>
        <mxCell id="GBpQVhTk9KxDPRQjgbmB-13" value="词云【椰子树】" style="rounded=1;whiteSpace=wrap;html=1;fontSize=15;fillColor=#d5e8d4;strokeColor=#82b366;" parent="1" vertex="1">
          <mxGeometry x="420" y="390" width="120" height="40" as="geometry" />
        </mxCell>
        <mxCell id="_B6zjToYffxElgbs01hp-4" style="edgeStyle=orthogonalEdgeStyle;rounded=0;orthogonalLoop=1;jettySize=auto;html=1;exitX=1;exitY=0.5;exitDx=0;exitDy=0;entryX=0;entryY=0.5;entryDx=0;entryDy=0;" parent="1" source="GBpQVhTk9KxDPRQjgbmB-14" target="_B6zjToYffxElgbs01hp-3" edge="1">
          <mxGeometry relative="1" as="geometry" />
        </mxCell>
        <mxCell id="GBpQVhTk9KxDPRQjgbmB-14" value="Echarts分析大屏" style="rounded=1;whiteSpace=wrap;html=1;fontSize=15;fillColor=#d5e8d4;strokeColor=#82b366;" parent="1" vertex="1">
          <mxGeometry x="420" y="240" width="120" height="40" as="geometry" />
        </mxCell>
        <mxCell id="SLsrdyDVqO_aE2-8c7I_-6" value="" style="edgeStyle=orthogonalEdgeStyle;rounded=0;orthogonalLoop=1;jettySize=auto;html=1;exitX=1;exitY=0.5;exitDx=0;exitDy=0;" parent="1" source="GBpQVhTk9KxDPRQjgbmB-2" target="SLsrdyDVqO_aE2-8c7I_-5" edge="1">
          <mxGeometry relative="1" as="geometry" />
        </mxCell>
        <mxCell id="_B6zjToYffxElgbs01hp-2" style="edgeStyle=orthogonalEdgeStyle;rounded=0;orthogonalLoop=1;jettySize=auto;html=1;exitX=1;exitY=0.5;exitDx=0;exitDy=0;entryX=0;entryY=0.5;entryDx=0;entryDy=0;" parent="1" source="SLsrdyDVqO_aE2-8c7I_-1" target="_B6zjToYffxElgbs01hp-1" edge="1">
          <mxGeometry relative="1" as="geometry" />
        </mxCell>
        <mxCell id="SLsrdyDVqO_aE2-8c7I_-1" value="景点库" style="rounded=1;whiteSpace=wrap;html=1;fontSize=15;fillColor=#d5e8d4;strokeColor=#82b366;" parent="1" vertex="1">
          <mxGeometry x="250" y="180" width="120" height="40" as="geometry" />
        </mxCell>
        <mxCell id="ySN6mnR29yhOzEf8zuOG-7" style="edgeStyle=orthogonalEdgeStyle;rounded=0;orthogonalLoop=1;jettySize=auto;html=1;exitX=1;exitY=0.5;exitDx=0;exitDy=0;entryX=0;entryY=0.5;entryDx=0;entryDy=0;" parent="1" source="SLsrdyDVqO_aE2-8c7I_-5" target="ySN6mnR29yhOzEf8zuOG-5" edge="1">
          <mxGeometry relative="1" as="geometry" />
        </mxCell>
        <mxCell id="ySN6mnR29yhOzEf8zuOG-8" style="edgeStyle=orthogonalEdgeStyle;rounded=0;orthogonalLoop=1;jettySize=auto;html=1;exitX=1;exitY=0.5;exitDx=0;exitDy=0;entryX=0;entryY=0.75;entryDx=0;entryDy=0;" parent="1" source="SLsrdyDVqO_aE2-8c7I_-5" target="ySN6mnR29yhOzEf8zuOG-6" edge="1">
          <mxGeometry relative="1" as="geometry" />
        </mxCell>
        <mxCell id="SLsrdyDVqO_aE2-8c7I_-5" value="协同过滤&lt;br&gt;推荐算法" style="rounded=1;whiteSpace=wrap;html=1;fontSize=15;fillColor=#d5e8d4;strokeColor=#82b366;" parent="1" vertex="1">
          <mxGeometry x="420" y="130" width="120" height="40" as="geometry" />
        </mxCell>
        <mxCell id="ySN6mnR29yhOzEf8zuOG-1" value="AI图像识别" style="rounded=1;whiteSpace=wrap;html=1;fontSize=15;fillColor=#fff2cc;strokeColor=#d6b656;" parent="1" vertex="1">
          <mxGeometry x="590" y="445" width="120" height="40" as="geometry" />
        </mxCell>
        <mxCell id="ySN6mnR29yhOzEf8zuOG-2" style="edgeStyle=orthogonalEdgeStyle;rounded=0;orthogonalLoop=1;jettySize=auto;html=1;exitX=1;exitY=0.5;exitDx=0;exitDy=0;" parent="1" source="GBpQVhTk9KxDPRQjgbmB-7" edge="1">
          <mxGeometry relative="1" as="geometry">
            <mxPoint x="550" y="405" as="sourcePoint" />
            <mxPoint x="590" y="465" as="targetPoint" />
          </mxGeometry>
        </mxCell>
        <mxCell id="ySN6mnR29yhOzEf8zuOG-3" value="修改个人信息" style="rounded=1;whiteSpace=wrap;html=1;fontSize=15;fillColor=#d5e8d4;strokeColor=#82b366;" parent="1" vertex="1">
          <mxGeometry x="420" y="575" width="120" height="40" as="geometry" />
        </mxCell>
        <mxCell id="ySN6mnR29yhOzEf8zuOG-5" value="UserCF算法" style="rounded=1;whiteSpace=wrap;html=1;fontSize=15;fillColor=#fff2cc;strokeColor=#d6b656;" parent="1" vertex="1">
          <mxGeometry x="610" y="100" width="120" height="40" as="geometry" />
        </mxCell>
        <mxCell id="ySN6mnR29yhOzEf8zuOG-6" value="ItemCF算法" style="rounded=1;whiteSpace=wrap;html=1;fontSize=15;fillColor=#fff2cc;strokeColor=#d6b656;" parent="1" vertex="1">
          <mxGeometry x="610" y="150" width="120" height="40" as="geometry" />
        </mxCell>
        <mxCell id="HFXg7WAJ4wF_oNfZ3qlw-4" style="edgeStyle=orthogonalEdgeStyle;rounded=0;orthogonalLoop=1;jettySize=auto;html=1;exitX=1;exitY=0.5;exitDx=0;exitDy=0;entryX=0;entryY=0.5;entryDx=0;entryDy=0;" parent="1" source="HFXg7WAJ4wF_oNfZ3qlw-1" target="HFXg7WAJ4wF_oNfZ3qlw-2" edge="1">
          <mxGeometry relative="1" as="geometry" />
        </mxCell>
        <mxCell id="HFXg7WAJ4wF_oNfZ3qlw-1" value="充值" style="rounded=1;whiteSpace=wrap;html=1;fontSize=15;fillColor=#fff2cc;strokeColor=#d6b656;" parent="1" vertex="1">
          <mxGeometry x="420" y="515" width="120" height="40" as="geometry" />
        </mxCell>
        <mxCell id="HFXg7WAJ4wF_oNfZ3qlw-2" value="支付宝沙箱支付" style="rounded=1;whiteSpace=wrap;html=1;fontSize=15;fillColor=#fff2cc;strokeColor=#d6b656;" parent="1" vertex="1">
          <mxGeometry x="590" y="515" width="120" height="40" as="geometry" />
        </mxCell>
        <mxCell id="_B6zjToYffxElgbs01hp-1" value="景点搜索" style="rounded=1;whiteSpace=wrap;html=1;fontSize=15;fillColor=#d5e8d4;strokeColor=#82b366;" parent="1" vertex="1">
          <mxGeometry x="420" y="180" width="120" height="40" as="geometry" />
        </mxCell>
        <mxCell id="_B6zjToYffxElgbs01hp-3" value="百度热力图" style="rounded=1;whiteSpace=wrap;html=1;fontSize=15;fillColor=#fff2cc;strokeColor=#d6b656;" parent="1" vertex="1">
          <mxGeometry x="610" y="240" width="120" height="40" as="geometry" />
        </mxCell>
        <mxCell id="_B6zjToYffxElgbs01hp-5" value="百度地图&lt;br&gt;展示景点位置" style="rounded=1;whiteSpace=wrap;html=1;fontSize=15;fillColor=#fff2cc;strokeColor=#d6b656;" parent="1" vertex="1">
          <mxGeometry x="610" y="30" width="120" height="40" as="geometry" />
        </mxCell>
        <mxCell id="_B6zjToYffxElgbs01hp-7" value="设置" style="rounded=1;whiteSpace=wrap;html=1;fontSize=15;fillColor=#d5e8d4;strokeColor=#82b366;" parent="1" vertex="1">
          <mxGeometry x="250" y="500" width="120" height="40" as="geometry" />
        </mxCell>
        <mxCell id="_B6zjToYffxElgbs01hp-14" style="edgeStyle=orthogonalEdgeStyle;rounded=0;orthogonalLoop=1;jettySize=auto;html=1;exitX=1;exitY=0.5;exitDx=0;exitDy=0;entryX=0;entryY=0.5;entryDx=0;entryDy=0;" parent="1" source="_B6zjToYffxElgbs01hp-10" target="_B6zjToYffxElgbs01hp-12" edge="1">
          <mxGeometry relative="1" as="geometry" />
        </mxCell>
        <mxCell id="_B6zjToYffxElgbs01hp-15" style="edgeStyle=orthogonalEdgeStyle;rounded=0;orthogonalLoop=1;jettySize=auto;html=1;exitX=1;exitY=0.5;exitDx=0;exitDy=0;entryX=0;entryY=0.5;entryDx=0;entryDy=0;" parent="1" source="_B6zjToYffxElgbs01hp-10" target="_B6zjToYffxElgbs01hp-13" edge="1">
          <mxGeometry relative="1" as="geometry" />
        </mxCell>
        <mxCell id="_B6zjToYffxElgbs01hp-10" value="景点分布分析" style="rounded=1;whiteSpace=wrap;html=1;fontSize=15;fillColor=#d5e8d4;strokeColor=#82b366;" parent="1" vertex="1">
          <mxGeometry x="250" y="310" width="120" height="40" as="geometry" />
        </mxCell>
        <mxCell id="_B6zjToYffxElgbs01hp-12" value="Echarts地图&lt;br&gt;显示省份分布" style="rounded=1;whiteSpace=wrap;html=1;fontSize=15;fillColor=#fff2cc;strokeColor=#d6b656;" parent="1" vertex="1">
          <mxGeometry x="420" y="290" width="120" height="40" as="geometry" />
        </mxCell>
        <mxCell id="_B6zjToYffxElgbs01hp-13" value="交互式Echarts&lt;br&gt;展示热门景点" style="rounded=1;whiteSpace=wrap;html=1;fontSize=15;fillColor=#fff2cc;strokeColor=#d6b656;" parent="1" vertex="1">
          <mxGeometry x="420" y="340" width="120" height="40" as="geometry" />
        </mxCell>
        <mxCell id="_B6zjToYffxElgbs01hp-16" value="百度地图API" style="rounded=1;whiteSpace=wrap;html=1;fillColor=#dae8fc;strokeColor=#6c8ebf;fontSize=16;" parent="1" vertex="1">
          <mxGeometry x="810" y="120" width="120" height="60" as="geometry" />
        </mxCell>
        <mxCell id="_B6zjToYffxElgbs01hp-17" value="" style="endArrow=none;dashed=1;html=1;dashPattern=1 3;strokeWidth=2;rounded=0;fontSize=16;entryX=1;entryY=0.5;entryDx=0;entryDy=0;exitX=0;exitY=0.5;exitDx=0;exitDy=0;" parent="1" source="_B6zjToYffxElgbs01hp-16" target="_B6zjToYffxElgbs01hp-3" edge="1">
          <mxGeometry width="50" height="50" relative="1" as="geometry">
            <mxPoint x="420" y="300" as="sourcePoint" />
            <mxPoint x="470" y="250" as="targetPoint" />
          </mxGeometry>
        </mxCell>
        <mxCell id="_B6zjToYffxElgbs01hp-20" value="" style="endArrow=none;dashed=1;html=1;dashPattern=1 3;strokeWidth=2;rounded=0;fontSize=16;entryX=0;entryY=0.5;entryDx=0;entryDy=0;exitX=1;exitY=0.75;exitDx=0;exitDy=0;" parent="1" source="_B6zjToYffxElgbs01hp-5" target="_B6zjToYffxElgbs01hp-16" edge="1">
          <mxGeometry width="50" height="50" relative="1" as="geometry">
            <mxPoint x="820" y="160" as="sourcePoint" />
            <mxPoint x="870" y="110" as="targetPoint" />
          </mxGeometry>
        </mxCell>
      </root>
    </mxGraphModel>
  </diagram>
</mxfile>
